# xmcd
#
# Track frame offsets: 
#        150
#        22995
#        42449
#        55906
#        68353
#        83037
#        96602
#        109546
#        132206
#        148364
#
# Disc length: 2224 seconds
#
# Revision: 0
# Processed by: cddbd v1.5.2PL0 Copyright (c) Steve Scherf et al.
# Submitted via: ExactAudioCopyFreeDBPlugin 1.0
#
DISCID=8608ae0a
DTITLE=Jeffrey Halford and The Healers - Lo-Fi Dreams
DYEAR=2017
DGENRE=blues
TTITLE0=Two Jacksons
TTITLE1=Elvis Shot the Television
TTITLE2=Door #3
TTITLE3=Good Trouble
TTITLE4=10,000 Miles
TTITLE5=Last Kiss
TTITLE6=Bird of Youth
TTITLE7=Sweet Annette
TTITLE8=Looking for a Home
TTITLE9=Great Divide 
EXTD=
EXTT0=
EXTT1=
EXTT2=
EXTT3=
EXTT4=
EXTT5=
EXTT6=
EXTT7=
EXTT8=
EXTT9=
PLAYORDER=
